<svg class="nav-logo" version="1.1" xmlns="http://www.w3.org/2000/svg" xmlns:xlink="http://www.w3.org/1999/xlink" preserveaspectration="xMinYMin meet" x="0px" y="0px" width="136px" height="52px" viewBox="0 0 136 52" overflow="visible" enable-background="new 0 0 136 52" xml:space="preserve">
                <path class="logo-letter" d="M7.45133,33.72656c0.14404,8.56885,5.6167,12.09717,11.95313,12.09717c4.53662,0,7.27246-0.79199,9.64893-1.80029
                  l1.08008,4.53662c-2.23242,1.00781-6.04883,2.16016-11.59326,2.16016c-10.72852,0-17.13721-7.05664-17.13721-17.56982
                  c0-10.5127,6.19238-18.79346,16.34521-18.79346c11.37695,0,14.40137,10.00879,14.40137,16.41748
                  c0,1.2959-0.14404,2.3042-0.21582,2.95215H7.45133z M26.02897,29.19043c0.07227-4.03271-1.65625-10.29688-8.78467-10.29688
                  c-6.40869,0-9.2168,5.9043-9.7207,10.29688H26.02897z"></path>
                <path class="logo-letter" d="M37.9069,43.51953c1.87207,1.22412,5.18408,2.52002,8.35254,2.52002c4.6084,0,6.76855-2.3042,6.76855-5.18457
                  c0-3.02393-1.80029-4.68018-6.48047-6.4082c-6.26465-2.23242-9.2168-5.68848-9.2168-9.86475
                  c0-5.6167,4.53613-10.2251,12.0249-10.2251c3.52832,0,6.62451,1.0083,8.56885,2.16016l-1.58398,4.6084
                  c-1.36816-0.86426-3.88867-2.01611-7.12891-2.01611c-3.74414,0-5.83252,2.16016-5.83252,4.75244
                  c0,2.88037,2.08838,4.17627,6.62451,5.9043c6.04883,2.3042,9.14502,5.32861,9.14502,10.51318
                  c0,6.12061-4.75244,10.44092-13.0332,10.44092c-3.81641,0-7.34473-0.93604-9.79297-2.37646L37.9069,43.51953z"></path>
                <path class="logo-letter" d="M65.1945,43.51953c1.87207,1.22412,5.18408,2.52002,8.35303,2.52002c4.60742,0,6.76758-2.3042,6.76758-5.18457
                  c0-3.02393-1.7998-4.68018-6.48047-6.4082c-6.26416-2.23242-9.21631-5.68848-9.21631-9.86475
                  c0-5.6167,4.53662-10.2251,12.0249-10.2251c3.52832,0,6.625,1.0083,8.56836,2.16016l-1.58398,4.6084
                  c-1.36719-0.86426-3.88867-2.01611-7.12891-2.01611c-3.74414,0-5.83203,2.16016-5.83203,4.75244
                  c0,2.88037,2.08789,4.17627,6.625,5.9043c6.04883,2.3042,9.14453,5.32861,9.14453,10.51318
                  c0,6.12061-4.75195,10.44092-13.0332,10.44092c-3.81641,0-7.34473-0.93604-9.79296-2.37646L65.1945,43.51953z"></path>
                <path class="logo-letter" d="M112.64323,50l-0.50391-4.39258h-0.21582c-1.94434,2.73633-5.68848,5.18457-10.65723,5.18457
                  c-7.05664,0-10.65625-4.96826-10.65625-10.00879c0-8.4248,7.48828-13.0332,20.95313-12.96094v-0.72021
                  c0-2.88037-0.79199-8.06494-7.91992-8.06494c-3.24023,0-6.625,1.0083-9.07324,2.59229l-1.44043-4.17627
                  c2.88086-1.87207,7.05664-3.09619,11.44922-3.09619c10.65723,0,13.24902,7.27246,13.24902,14.25732v13.0332
                  c0,3.02393,0.14453,5.97656,0.57617,8.35254H112.64323z M111.70768,32.21436c-6.91309-0.14404-14.76172,1.08008-14.76172,7.84863
                  c0,4.10449,2.73633,6.04883,5.97656,6.04883c4.53711,0,7.41699-2.88037,8.4248-5.83252
                  c0.21582-0.64844,0.36035-1.36816,0.36035-2.01611V32.21436z"></path>
                <path class="logo-dot" d="M133.88249,5.35596c0.07129,2.16016-1.5127,3.88867-4.0332,3.88867c-2.23145,0-3.81544-1.72852-3.81544-3.88867
                  c0-2.23193,1.65527-3.95996,3.95997-3.95996C132.3698,1.396,133.88249,3.12402,133.88249,5.35596z"></path>
                <rect class="logo-letter" x="126.82584" y="15.14893" width="6.33594" height="34.85107"></rect>
              </svg>